<svg width="384" height="340" viewBox="0 0 384 340" fill="none" xmlns="http://www.w3.org/2000/svg">
<path d="M159.915 326.702C156.95 326.702 153.882 326.634 150.797 326.505C137.929 326.014 125.159 324.163 112.726 320.987C106.726 319.427 100.839 317.503 95.1 315.227C48.0792 296.612 17.4584 255.426 13.1481 205.024C10.9048 179.103 16.9777 157.274 31.6952 138.326C44.1214 122.303 60.6897 110.828 76.7371 100.808C87.2085 94.275 96.5501 84.3764 107.374 72.924C132.811 45.9947 164.473 12.479 222.358 12.479C224.129 12.479 225.947 12.479 227.75 12.57C240.924 12.9777 254 14.8655 266.703 18.1938C298.069 26.5311 326.198 44.6153 341.957 66.5271C343.215 68.2779 344.481 70.1424 345.707 72.0751C373.483 115.831 375.013 176.025 367.178 217.772C359.423 259.133 345.074 285.493 322.312 299.78C322.042 298.226 321.605 296.703 321.006 295.233C317.001 285.539 306.585 279.748 293.222 279.748C292.1 279.748 290.954 279.786 289.817 279.87C273.962 280.961 262.449 289.382 254.044 295.536L251.897 297.082C223.592 317.569 195.214 326.702 159.915 326.702Z" fill="#D3CBB7"/>
<path d="M285.17 57.6517C287.245 57.6517 288.927 56.0602 288.927 54.097C288.927 52.1338 287.245 50.5423 285.17 50.5423C283.095 50.5423 281.412 52.1338 281.412 54.097C281.412 56.0602 283.095 57.6517 285.17 57.6517Z" fill="#8B5A2B"/>
<path d="M348.094 117.809C350.169 117.809 351.851 116.217 351.851 114.254C351.851 112.291 350.169 110.699 348.094 110.699C346.019 110.699 344.336 112.291 344.336 114.254C344.336 116.217 346.019 117.809 348.094 117.809Z" fill="#8B5A2B"/>
<path d="M88.29 286.342C90.3652 286.342 92.0475 284.751 92.0475 282.788C92.0475 280.824 90.3652 279.233 88.29 279.233C86.2148 279.233 84.5325 280.824 84.5325 282.788C84.5325 284.751 86.2148 286.342 88.29 286.342Z" fill="#8B5A2B"/>
<path d="M317.177 283.258C319.252 283.258 320.934 281.666 320.934 279.703C320.934 277.74 319.252 276.148 317.177 276.148C315.102 276.148 313.419 277.74 313.419 279.703C313.419 281.666 315.102 283.258 317.177 283.258Z" fill="#8B5A2B"/>
<path d="M193.804 23.1204C193.804 23.5221 193.678 23.9148 193.442 24.2489C193.207 24.5829 192.871 24.8433 192.479 24.997C192.086 25.1507 191.655 25.191 191.238 25.1126C190.822 25.0342 190.439 24.8408 190.139 24.5567C189.839 24.2726 189.634 23.9107 189.551 23.5166C189.468 23.1226 189.511 22.7142 189.673 22.343C189.836 21.9719 190.111 21.6546 190.464 21.4314C190.817 21.2082 191.232 21.0891 191.657 21.0891C192.227 21.0891 192.773 21.3031 193.175 21.6841C193.578 22.065 193.804 22.5816 193.804 23.1204Z" fill="#8B5A2B"/>
<path d="M44.3938 149.331C46.469 149.331 48.1513 147.74 48.1513 145.776C48.1513 143.813 46.469 142.222 44.3938 142.222C42.3186 142.222 40.6363 143.813 40.6363 145.776C40.6363 147.74 42.3186 149.331 44.3938 149.331Z" fill="#8B5A2B"/>
<path d="M315.382 58.5158C316.413 58.5158 317.249 57.7251 317.249 56.7498C317.249 55.7745 316.413 54.9838 315.382 54.9838C314.351 54.9838 313.515 55.7745 313.515 56.7498C313.515 57.7251 314.351 58.5158 315.382 58.5158Z" fill="#8B5A2B"/>
<path d="M64.375 260.8C65.406 260.8 66.2417 260.009 66.2417 259.034C66.2417 258.059 65.406 257.268 64.375 257.268C63.344 257.268 62.5083 258.059 62.5083 259.034C62.5083 260.009 63.344 260.8 64.375 260.8Z" fill="#6B8E23"/>
<path d="M339.714 246.263C340.745 246.263 341.58 245.472 341.58 244.497C341.58 243.522 340.745 242.731 339.714 242.731C338.683 242.731 337.847 243.522 337.847 244.497C337.847 245.472 338.683 246.263 339.714 246.263Z" fill="#6B8E23"/>
<path d="M167.975 293.186C167.976 293.536 167.868 293.878 167.664 294.17C167.46 294.461 167.169 294.689 166.828 294.823C166.487 294.958 166.111 294.994 165.749 294.927C165.386 294.86 165.053 294.692 164.791 294.445C164.529 294.199 164.35 293.884 164.278 293.541C164.205 293.199 164.241 292.843 164.382 292.52C164.523 292.197 164.763 291.921 165.07 291.726C165.377 291.532 165.738 291.428 166.108 291.428C166.602 291.428 167.075 291.613 167.425 291.943C167.775 292.272 167.972 292.719 167.975 293.186Z" fill="#6B8E23"/>
<path d="M72.4348 230.922C72.4348 231.272 72.3253 231.613 72.1202 231.904C71.9151 232.194 71.6235 232.42 71.2824 232.554C70.9413 232.688 70.566 232.723 70.2039 232.654C69.8418 232.586 69.5091 232.418 69.2481 232.171C68.987 231.924 68.8092 231.61 68.7372 231.267C68.6652 230.924 68.7021 230.569 68.8434 230.247C68.9847 229.924 69.224 229.648 69.531 229.454C69.8379 229.26 70.1988 229.156 70.5681 229.156C71.0625 229.158 71.5361 229.345 71.8857 229.676C72.2353 230.007 72.4327 230.455 72.4348 230.922Z" fill="#8B5A2B"/>
<path d="M149.636 315.515C149.636 315.864 149.526 316.206 149.321 316.496C149.116 316.787 148.824 317.013 148.483 317.147C148.142 317.28 147.767 317.315 147.405 317.247C147.043 317.179 146.71 317.011 146.449 316.764C146.188 316.517 146.01 316.202 145.938 315.86C145.866 315.517 145.903 315.162 146.044 314.839C146.186 314.517 146.425 314.241 146.732 314.047C147.039 313.853 147.4 313.749 147.769 313.749C148.014 313.748 148.258 313.793 148.485 313.882C148.712 313.97 148.918 314.1 149.091 314.264C149.265 314.428 149.402 314.623 149.496 314.838C149.589 315.053 149.637 315.283 149.636 315.515Z" fill="#8B5A2B"/>
<path d="M257.033 31.215C257.033 31.5643 256.923 31.9058 256.718 32.1962C256.513 32.4866 256.222 32.7129 255.88 32.8466C255.539 32.9803 255.164 33.0152 254.802 32.9471C254.44 32.879 254.107 32.7108 253.846 32.4638C253.585 32.2168 253.407 31.9021 253.335 31.5596C253.263 31.217 253.3 30.8619 253.441 30.5392C253.583 30.2165 253.822 29.9407 254.129 29.7467C254.436 29.5526 254.797 29.4491 255.166 29.4491C255.661 29.4491 256.136 29.6351 256.486 29.9663C256.836 30.2975 257.033 30.7467 257.033 31.215Z" fill="#6B8E23"/>
<path d="M260.253 224.139C260.253 224.488 260.144 224.83 259.939 225.12C259.734 225.41 259.442 225.637 259.101 225.77C258.76 225.904 258.385 225.939 258.023 225.871C257.66 225.803 257.328 225.635 257.067 225.388C256.806 225.141 256.628 224.826 256.556 224.483C256.484 224.141 256.521 223.786 256.662 223.463C256.803 223.14 257.043 222.865 257.35 222.671C257.657 222.477 258.018 222.373 258.387 222.373C258.632 222.372 258.875 222.417 259.102 222.505C259.329 222.594 259.536 222.724 259.709 222.888C259.883 223.052 260.02 223.247 260.114 223.462C260.207 223.677 260.255 223.907 260.253 224.139Z" fill="#8B5A2B"/>
<path d="M345.891 155.554C345.891 155.903 345.781 156.245 345.576 156.536C345.37 156.826 345.078 157.053 344.737 157.186C344.395 157.319 344.019 157.354 343.657 157.285C343.295 157.216 342.962 157.048 342.701 156.8C342.441 156.552 342.263 156.237 342.192 155.894C342.121 155.551 342.159 155.195 342.302 154.873C342.444 154.55 342.685 154.275 342.993 154.082C343.301 153.889 343.663 153.786 344.032 153.788C344.526 153.79 344.999 153.977 345.347 154.308C345.695 154.639 345.891 155.087 345.891 155.554Z" fill="#8B5A2B"/>
<path d="M40.6523 224.935C41.6833 224.935 42.519 224.144 42.519 223.169C42.519 222.193 41.6833 221.403 40.6523 221.403C39.6213 221.403 38.7856 222.193 38.7856 223.169C38.7856 224.144 39.6213 224.935 40.6523 224.935Z" fill="#6B8E23"/>
<path d="M206.823 304.912C207.854 304.912 208.69 304.121 208.69 303.146C208.69 302.17 207.854 301.38 206.823 301.38C205.792 301.38 204.957 302.17 204.957 303.146C204.957 304.121 205.792 304.912 206.823 304.912Z" fill="#8B5A2B"/>
<path d="M139.188 236.084C140.219 236.084 141.055 235.293 141.055 234.318C141.055 233.343 140.219 232.552 139.188 232.552C138.157 232.552 137.322 233.343 137.322 234.318C137.322 235.293 138.157 236.084 139.188 236.084Z" fill="#6B8E23"/>
<path d="M263.506 91.8041C263.506 92.1537 263.397 92.4955 263.191 92.786C262.986 93.0766 262.694 93.3029 262.352 93.4364C262.01 93.5698 261.635 93.6043 261.272 93.5356C260.91 93.4668 260.577 93.2979 260.317 93.0502C260.056 92.8024 259.879 92.487 259.808 92.144C259.737 91.8009 259.775 91.4456 259.917 91.123C260.06 90.8005 260.3 90.5252 260.608 90.3321C260.916 90.1389 261.278 90.0366 261.648 90.0381C261.892 90.0381 262.135 90.0839 262.361 90.1727C262.587 90.2615 262.792 90.3917 262.965 90.5558C263.137 90.7199 263.274 90.9147 263.367 91.1289C263.46 91.3431 263.507 91.5726 263.506 91.8041Z" fill="#6B8E23"/>
<path d="M105.01 276.042V245.725H116.603V247.93H108.055V259.299H115.025V261.399H108.055V273.897H116.684V276.034L105.01 276.042Z" fill="#8B5A2B"/>
<path d="M120.802 276.042V245.725H128.012C129.645 245.645 131.271 245.961 132.739 246.642C133.863 247.231 134.735 248.171 135.207 249.302C135.74 250.622 135.996 252.028 135.96 253.441C135.968 254.51 135.836 255.577 135.567 256.616C135.336 257.554 134.875 258.426 134.221 259.163C133.515 259.899 132.566 260.388 131.529 260.55L136.44 276.05H133.508L128.829 261.111H123.806V276.042H120.802ZM123.806 259.042H127.884C128.967 259.099 130.046 258.879 131.008 258.405C131.76 257.98 132.328 257.317 132.611 256.533C132.961 255.534 133.123 254.485 133.092 253.433C133.2 251.967 132.84 250.504 132.058 249.234C131.377 248.317 130.015 247.855 127.988 247.855H123.83L123.806 259.042Z" fill="#8B5A2B"/>
<path d="M141.055 276.042V245.725H148.266C149.901 245.648 151.529 245.963 153.001 246.642C154.125 247.231 154.997 248.171 155.468 249.302C156.002 250.622 156.258 252.028 156.221 253.441C156.229 254.51 156.097 255.577 155.829 256.616C155.598 257.553 155.137 258.426 154.483 259.163C153.776 259.899 152.828 260.388 151.791 260.55L156.694 276.05H153.77L149.091 261.111H144.068V276.042H141.055ZM144.068 259.042H148.146C149.229 259.098 150.308 258.878 151.27 258.405C152.022 257.98 152.59 257.317 152.872 256.533C153.222 255.534 153.385 254.485 153.353 253.433C153.462 251.967 153.102 250.504 152.32 249.234C151.631 248.317 150.277 247.855 148.242 247.855H144.092L144.068 259.042Z" fill="#8B5A2B"/>
<path d="M168.88 276.413C167.137 276.504 165.405 276.095 163.913 275.239C162.703 274.438 161.811 273.278 161.381 271.942C160.866 270.372 160.617 268.735 160.644 267.091V254.517C160.615 252.881 160.886 251.252 161.445 249.704C161.907 248.409 162.812 247.297 164.017 246.543C165.534 245.806 167.214 245.421 168.92 245.421C170.625 245.421 172.306 245.806 173.823 246.543C175.027 247.295 175.927 248.408 176.379 249.704C176.913 251.257 177.168 252.884 177.132 254.517V267.129C177.159 268.764 176.913 270.394 176.403 271.957C175.97 273.283 175.086 274.437 173.887 275.239C172.383 276.103 170.636 276.513 168.88 276.413ZM168.88 274.14C170.025 274.213 171.164 273.931 172.125 273.336C172.887 272.761 173.423 271.96 173.647 271.062C173.94 269.968 174.08 268.842 174.063 267.712V253.994C174.08 252.87 173.94 251.748 173.647 250.659C173.419 249.786 172.882 249.013 172.125 248.469C171.129 247.966 170.017 247.703 168.888 247.703C167.759 247.703 166.647 247.966 165.651 248.469C164.882 249.006 164.335 249.781 164.105 250.659C163.815 251.749 163.677 252.87 163.696 253.994V267.728C163.678 268.856 163.815 269.983 164.105 271.078C164.331 271.98 164.877 272.782 165.651 273.351C166.61 273.935 167.743 274.209 168.88 274.132V274.14Z" fill="#8B5A2B"/>
<path d="M182.091 276.042V245.725H189.302C190.934 245.645 192.561 245.961 194.029 246.642C195.152 247.234 196.026 248.173 196.504 249.302C197.034 250.623 197.29 252.028 197.257 253.441C197.261 254.51 197.13 255.576 196.865 256.616C196.631 257.552 196.17 258.424 195.519 259.163C194.811 259.898 193.863 260.386 192.827 260.55L197.73 276.05H194.806L190.127 261.111H185.104V276.042H182.091ZM185.104 259.042H189.174C190.257 259.099 191.336 258.879 192.298 258.405C193.049 257.98 193.617 257.317 193.9 256.533C194.246 255.533 194.406 254.484 194.373 253.433C194.484 251.968 194.127 250.505 193.348 249.234C192.659 248.317 191.305 247.855 189.27 247.855H185.12L185.104 259.042Z" fill="#8B5A2B"/>
<path d="M210.429 276.042V245.725H218.104C219.684 245.645 221.254 245.995 222.631 246.733C223.721 247.4 224.548 248.388 224.986 249.545C225.488 250.903 225.73 252.335 225.699 253.774C225.714 255.121 225.467 256.46 224.97 257.723C224.507 258.903 223.667 259.918 222.566 260.626C221.247 261.399 219.711 261.777 218.16 261.71H213.441V276.042H210.429ZM213.441 259.595H217.279C218.358 259.633 219.433 259.447 220.427 259.049C221.237 258.676 221.867 258.026 222.19 257.23C222.603 256.127 222.791 254.959 222.743 253.789C222.789 252.567 222.627 251.347 222.262 250.174C222.136 249.783 221.924 249.421 221.642 249.111C221.359 248.802 221.011 248.552 220.62 248.378C219.567 247.998 218.444 247.828 217.319 247.877H213.441V259.595Z" fill="#8B5A2B"/>
<path d="M226.172 276.042L232.942 245.725H236.146L242.956 276.042H239.984L238.382 267.917H230.738L229.136 276.042H226.172ZM231.163 265.855H237.965L234.52 249.499L231.163 265.855Z" fill="#8B5A2B"/>
<path d="M253.956 276.451C252.284 276.539 250.625 276.119 249.221 275.254C248.049 274.405 247.204 273.214 246.818 271.866C246.313 270.219 246.073 268.51 246.105 266.795V254.964C246.072 253.256 246.304 251.553 246.794 249.909C247.195 248.576 248.059 247.409 249.245 246.596C250.708 245.854 252.336 245.452 253.995 245.423C255.654 245.394 257.297 245.739 258.787 246.43C259.915 247.133 260.762 248.174 261.191 249.386C261.726 250.917 261.978 252.525 261.936 254.138V255.191H259.108V254.138C259.134 252.928 258.994 251.721 258.691 250.545C258.483 249.7 257.973 248.948 257.249 248.415C256.335 247.882 255.268 247.633 254.197 247.703C253.024 247.622 251.86 247.939 250.912 248.597C250.148 249.242 249.64 250.113 249.47 251.068C249.233 252.252 249.12 253.456 249.133 254.661V267.129C249.108 268.403 249.248 269.676 249.55 270.918C249.76 271.861 250.306 272.707 251.096 273.314C252.036 273.922 253.165 274.213 254.301 274.14C255.36 274.247 256.423 273.971 257.275 273.366C258.127 272.761 258.705 271.873 258.892 270.881C259.202 269.639 259.347 268.366 259.324 267.091V263.536H254.581V261.406H262.096V276.042H260.157L259.805 272.593C259.46 273.694 258.776 274.673 257.842 275.405C256.715 276.171 255.341 276.541 253.956 276.451Z" fill="#8B5A2B"/>
<path d="M267.248 276.042V245.725H278.841V247.93H270.324V259.299H277.295V261.399H270.324V273.897H278.953V276.034L267.248 276.042Z" fill="#8B5A2B"/>
<path d="M92.3199 234.492V197.301H44.522V175.252L86.1829 83.1334H117.981V176.745H134.373V197.301H117.997V234.492H92.3199ZM67.4275 176.745H92.3199V110.972L67.4275 176.745ZM190.487 236.728C181.14 236.728 173.396 234.861 167.253 231.127C161.127 227.376 156.321 221.982 153.449 215.635C150.357 209.026 148.811 201.426 148.811 192.836V125.737C148.811 116.894 150.293 109.141 153.257 102.476C155.986 96.0692 160.744 90.6181 166.877 86.87C172.998 83.1309 180.865 81.2613 190.479 81.2613C200.094 81.2613 207.961 83.1309 214.082 86.87C220.211 90.6222 224.967 96.072 227.702 102.476C230.666 109.141 232.148 116.894 232.148 125.737V192.821C232.148 201.411 230.599 209.011 227.502 215.62C224.629 221.975 219.817 227.375 213.681 231.127C207.566 234.866 199.834 236.733 190.487 236.728ZM190.487 214.498C194.568 214.498 197.597 213.313 199.573 210.943C201.613 208.427 202.969 205.476 203.523 202.348C204.17 199.082 204.5 195.766 204.508 192.442V126.108C204.509 122.635 204.212 119.167 203.619 115.74C203.146 112.579 201.819 109.587 199.765 107.054C197.794 104.689 194.702 103.504 190.487 103.499C186.273 103.494 183.178 104.679 181.202 107.054C179.166 109.592 177.853 112.583 177.388 115.74C176.795 119.167 176.498 122.635 176.499 126.108V192.442C176.507 195.771 176.872 199.09 177.589 202.348C178.199 205.476 179.586 208.422 181.635 210.943C183.611 213.318 186.562 214.503 190.487 214.498ZM297.348 234.492V197.301H249.542V175.252L291.203 83.1334H323.001V176.745H339.401V197.301H323.017V234.492H297.348ZM272.455 176.745H297.348V110.972L272.455 176.745Z" fill="#6B8E23" stroke="#D3CBB7" stroke-width="0.214525" stroke-miterlimit="10"/>
<g opacity="0.3">
<path d="M251.657 193.753L251.761 193.844C251.903 193.953 252.053 194.052 252.21 194.14L252.338 194.201C252.479 194.279 252.626 194.348 252.779 194.405L252.939 194.466C253.149 194.547 253.366 194.613 253.588 194.663H253.7C253.908 194.708 254.125 194.746 254.365 194.777H254.589C254.87 194.777 255.166 194.837 255.487 194.845C256.617 194.874 257.741 194.68 258.787 194.276C259.345 194.072 259.882 193.818 260.39 193.518C260.738 193.31 261.075 193.085 261.399 192.844C261.567 192.723 261.728 192.594 261.888 192.457C262.213 192.189 262.52 191.903 262.809 191.601C265.469 188.842 267.031 184.545 265.734 179.474C265.413 178.216 265.069 177.033 264.708 175.897C264.147 174.13 263.476 172.396 262.697 170.705C262.505 170.295 262.313 169.894 262.104 169.507C261.651 168.632 261.145 167.782 260.59 166.961C260.237 166.438 259.869 165.937 259.492 165.445C258.643 164.377 257.634 163.432 256.496 162.64C256.232 162.458 255.959 162.292 255.695 162.14C255.626 162.099 255.554 162.063 255.479 162.034L249.534 175.169V189.865C250.103 191.381 250.487 192.707 251.497 193.655L251.657 193.753Z" fill="black"/>
<path d="M232.164 189.865V163.845C231.363 163.845 230.658 163.906 230.025 163.944C230.11 159.834 229.623 155.731 228.575 151.741C228.562 149.276 228.027 146.839 227.002 144.572C225.977 142.306 224.482 140.257 222.606 138.546C222.23 133.513 219.258 127.631 215.933 123.508C216.015 123.516 216.098 123.516 216.181 123.508C217.511 123.372 218.344 121.795 218.929 119.082C219.009 118.711 219.073 118.362 219.121 118.028C220.32 117.329 221.334 116.38 222.086 115.254C222.509 114.398 222.78 113.481 222.887 112.541C224.352 111.705 225.677 110.668 226.821 109.464C227.897 108.264 228.601 106.805 228.856 105.25C228.511 104.302 228.135 103.37 227.734 102.461C226.041 98.6346 223.643 95.1238 220.652 92.0921C219.785 91.6611 218.872 91.3205 217.928 91.0764C217.07 90.8582 216.188 90.7411 215.3 90.7278C210.44 89.8148 205.504 89.3075 200.55 89.2119C198.147 89.1589 196.008 89.2119 194.077 89.2801C192.416 88.5977 190.597 88.3365 188.797 88.5222C187.688 88.6322 186.605 88.9139 185.592 89.3559C182.772 88.6407 179.839 88.4046 176.932 88.6586C176.323 88.7269 175.722 88.7951 175.137 88.8784C175.137 88.5904 175.097 88.3024 175.057 88.0144C174.993 87.4611 174.905 86.9154 174.801 86.3773C174.864 85.3676 174.864 84.3552 174.801 83.3456C171.978 84.1788 169.284 85.3613 166.789 86.8624C160.656 90.6105 155.898 96.0615 153.169 102.468C150.205 109.133 148.722 116.887 148.722 125.729V132.384C151.591 135.893 155.052 139.827 157.335 141.335L157.832 141.82C157.992 144.435 158.481 150.324 159.682 152.264C159.682 152.264 158.737 155.387 160.339 156.971C159.851 160.473 159.202 169.242 163.047 177.882C166.036 184.59 171.131 188.213 176.371 189.365V126.108C176.412 122.631 176.752 119.164 177.388 115.74C177.864 112.58 179.191 109.588 181.242 107.054C183.218 104.689 186.313 103.504 190.528 103.499C194.742 103.494 197.834 104.679 199.805 107.054C201.859 109.587 203.186 112.579 203.659 115.74C204.252 119.167 204.549 122.635 204.548 126.108V192.442C204.548 193.564 204.492 194.716 204.42 195.823C204.46 196.035 204.508 196.239 204.564 196.429C204.629 196.639 204.71 196.844 204.804 197.043C204.82 197.082 204.839 197.12 204.861 197.157C204.929 197.294 205.01 197.426 205.101 197.551L205.173 197.642C205.276 197.777 205.394 197.902 205.525 198.013C205.649 198.117 205.783 198.208 205.926 198.286L206.038 198.346L206.439 198.528H206.519C206.687 198.589 206.863 198.642 207.056 198.695H207.184C207.336 198.741 207.504 198.779 207.673 198.816L207.857 198.862L208.458 198.991C211.358 199.627 216.309 195.906 217.575 192.169C217.84 191.356 218.038 190.525 218.168 189.683L218.649 189.615C223.098 190.499 227.682 190.584 232.164 189.865ZM213.778 121.144L213.826 120.818C213.786 120.893 213.778 121.03 213.778 121.113V121.144ZM214.026 119.256C214.074 118.87 214.13 118.498 214.178 118.119C214.138 118.491 214.074 118.87 214.026 119.226V119.256Z" fill="black"/>
<path d="M117.997 134.733C116.964 137.181 116.051 139.387 115.594 140.615C114.12 144.533 112.574 148.952 112.606 151.484C112.638 154.015 114.296 157.259 115.594 157.365C116.892 157.471 117.813 156.66 117.997 154.955V134.733Z" fill="black"/>
</g>
<path d="M210.341 142.252C210.835 146.047 211.086 149.866 211.094 153.689C211.046 159.449 212.472 159.571 215.38 160.207C218.288 160.844 223.231 157.123 224.497 153.386C225.763 149.649 225.643 142.426 225.643 142.426L210.341 142.252Z" fill="#DEDEDE"/>
<path d="M216.077 160.655C215.808 160.657 215.539 160.632 215.276 160.579L215.003 160.518C211.975 159.859 210.637 159.328 210.685 153.697C210.676 149.897 210.427 146.1 209.94 142.328L209.876 141.896L226.027 142.07V142.442C226.027 142.737 226.132 149.763 224.858 153.522C223.584 157.282 219.21 160.655 216.077 160.655ZM210.797 142.639C211.254 146.306 211.487 149.996 211.494 153.689C211.446 158.995 212.544 159.199 215.196 159.753L215.468 159.813C218.152 160.405 222.919 156.782 224.113 153.242C225.186 150.081 225.25 144.291 225.242 142.775L210.797 142.639Z" fill="#D3CBB7"/>
<path d="M223.592 149.195C223.456 151.749 222.655 155.849 218.641 157.865C217.521 158.432 216.261 158.704 214.993 158.652C213.724 158.6 212.494 158.226 211.43 157.57C212.023 159.571 213.329 159.768 215.348 160.207C218.248 160.844 223.199 157.123 224.465 153.386C225.731 149.649 225.611 142.426 225.611 142.426H223.824C223.792 144.298 223.68 147.474 223.592 149.195Z" fill="#DEDEDE"/>
<path d="M216.077 160.655C215.808 160.657 215.539 160.632 215.276 160.579L215.011 160.518C213.161 160.116 211.702 159.798 211.07 157.668L210.781 156.713L211.67 157.251C212.672 157.863 213.828 158.211 215.019 158.26C216.21 158.309 217.394 158.058 218.448 157.532C222.102 155.69 223.039 151.969 223.183 149.195C223.279 147.353 223.4 143.836 223.448 142.411V142.04H226.019V142.411C226.019 142.707 226.124 149.733 224.85 153.492C223.576 157.251 219.209 160.655 216.077 160.655ZM212.271 158.381C212.848 159.245 213.778 159.449 215.196 159.76L215.468 159.813C218.152 160.404 222.919 156.782 224.113 153.242C225.186 150.081 225.25 144.291 225.242 142.775H224.241C224.185 144.374 224.081 147.497 223.992 149.202C223.84 152.196 222.815 156.183 218.833 158.191C217.831 158.705 216.717 158.992 215.579 159.028C214.44 159.065 213.308 158.851 212.271 158.403V158.381Z" fill="#D3CBB7"/>
<path d="M196.536 147.686C200.406 147.441 204.215 146.644 207.833 145.322C214.362 143.048 221.693 137.871 220.123 132.816C218.553 127.76 210.044 126.358 206.687 126.699C204.259 126.99 201.851 127.418 199.477 127.98C199.477 127.98 200.294 142.214 196.536 147.686Z" fill="#DEDEDE"/>
<path d="M195.815 148.08L196.224 147.482C199.869 142.176 199.14 128.139 199.132 127.995V127.685L199.453 127.609C201.843 127.045 204.267 126.615 206.711 126.32C210.108 125.979 218.905 127.321 220.58 132.71C222.142 137.742 215.292 143.146 208.041 145.678C204.375 147.027 200.511 147.833 196.584 148.065L195.815 148.08ZM199.949 128.268C200.037 130.368 200.39 141.828 197.289 147.269C200.867 146.944 204.384 146.179 207.753 144.996C214.651 142.585 221.22 137.545 219.77 132.952C218.248 128.063 209.844 126.79 206.759 127.108C204.459 127.368 202.177 127.755 199.925 128.268H199.949Z" fill="#D3CBB7"/>
<path d="M193.412 149.756C196.109 149.139 198.525 147.717 200.302 145.701C202.906 142.487 203.867 137.303 202.473 133.831C201.079 130.36 193.412 149.756 193.412 149.756Z" fill="#6B8E23"/>
<path d="M192.747 150.263L193.003 149.619C194.541 145.731 199.741 133.043 201.984 133.036C202.193 133.036 202.585 133.119 202.785 133.695C204.212 137.257 203.234 142.631 200.558 145.928C198.727 148.023 196.224 149.497 193.428 150.127L192.747 150.263ZM201.96 133.778C200.863 133.778 197.049 141.653 194.029 149.18C196.349 148.523 198.411 147.228 199.949 145.458C202.473 142.351 203.402 137.295 202.072 133.96C202.052 133.891 202.014 133.829 201.96 133.778Z" fill="#D3CBB7"/>
<path d="M167.638 116.528C167.638 116.528 165.122 127.897 170.042 139.031C174.961 150.165 185.777 152.81 193.348 149.756C200.919 146.701 202.729 136.613 202.809 129.905C202.89 123.198 202.681 120.151 202.681 120.151C202.681 120.151 177.236 122.5 167.638 116.528Z" fill="#DEDEDE"/>
<path d="M187.187 151.309C184.974 151.305 182.782 150.901 180.729 150.119C177.348 148.823 172.717 145.867 169.705 139.175C164.762 128.064 167.213 116.566 167.245 116.437L167.366 115.891L167.854 116.194C177.228 122.03 202.417 119.779 202.673 119.757L203.082 119.719V120.113C203.082 120.113 203.29 123.258 203.21 129.898C203.154 134.817 202.088 146.625 193.5 150.089C191.503 150.892 189.356 151.307 187.187 151.309ZM167.959 117.149C167.55 119.529 166.236 129.352 170.474 138.887C173.35 145.337 177.821 148.171 181.066 149.414C184.969 150.933 189.348 150.933 193.252 149.414C201.407 146.125 202.417 134.68 202.473 129.913C202.537 124.607 202.417 121.576 202.369 120.575C198.94 120.848 177.276 122.409 167.926 117.149H167.959Z" fill="#D3CBB7"/>
<path d="M166.709 113.413C166.709 113.413 165.579 117.142 167.862 118.514C170.146 119.885 181.931 126.434 195.903 123.925C203.723 122.523 202 120.355 201.864 119.165C201.728 117.975 166.709 113.413 166.709 113.413Z" fill="#6B8E23"/>
<path d="M189.51 124.873C181.78 124.74 174.229 122.646 167.646 118.809C165.146 117.293 166.276 113.451 166.324 113.284L166.42 112.966L166.765 113.011C166.853 113.011 175.634 114.171 184.31 115.444C202.169 118.066 202.241 118.642 202.289 119.105C202.312 119.253 202.345 119.4 202.385 119.544C202.521 119.9 202.573 120.281 202.537 120.658C202.501 121.035 202.378 121.4 202.177 121.727C201.415 122.849 199.453 123.66 196.008 124.274C193.866 124.666 191.691 124.867 189.51 124.873ZM167.013 113.837C166.821 114.716 166.436 117.21 168.079 118.195C170.29 119.522 182.019 126.032 195.855 123.554C198.988 122.993 200.887 122.25 201.504 121.341C201.642 121.097 201.723 120.828 201.741 120.552C201.759 120.276 201.713 119.999 201.608 119.741C201.565 119.6 201.533 119.464 201.512 119.332C199.821 118.392 179.744 115.497 167.013 113.837Z" fill="#D3CBB7"/>
<path d="M164.802 101.695C164.802 101.695 165.146 110.896 166.709 113.413C168.271 115.929 188.957 123.577 199.461 121.424C209.964 119.272 227.061 110.419 229.144 103.916C231.227 97.4128 225.811 87.1807 220.716 82.2541C215.62 77.3276 213.385 76.3574 213.385 76.3574C213.385 76.3574 200.903 92.0921 185.4 97.3067C169.897 102.521 164.802 101.695 164.802 101.695Z" fill="#F1F1F1"/>
<path d="M195.214 122.182C184.054 122.182 167.87 116.028 166.372 113.602C164.77 111.033 164.417 102.089 164.409 101.71V101.248L164.89 101.324C164.938 101.324 170.09 102.044 185.264 96.9504C200.438 91.8572 212.968 76.2892 213.089 76.1301L213.289 75.8875L213.577 76.0164C213.673 76.0543 215.941 77.0775 221.028 81.9889C226.116 86.9003 231.756 97.1475 229.553 104.03C227.349 110.912 209.836 119.696 199.573 121.795C198.138 122.068 196.677 122.197 195.214 122.182ZM165.219 102.112C165.315 103.946 165.747 111.116 167.053 113.223C168.359 115.33 188.741 123.228 199.381 121.053C210.292 118.779 226.813 109.881 228.759 103.81C230.843 97.2991 225.162 87.0898 220.427 82.5194C216.421 78.6843 214.226 77.267 213.497 76.8501C211.767 78.9344 199.877 92.8425 185.512 97.6629C172.501 102.029 166.813 102.188 165.219 102.112Z" fill="#D3CBB7"/>
<path d="M247.259 124.941C247.259 124.941 258.251 120.871 262.641 123.364C267.031 125.858 270.388 131.702 272.696 140.668C275.003 149.634 268.257 156.243 262.433 156.039C256.608 155.834 257.626 152.249 255.358 148.603C253.091 144.958 250.303 142.836 250.119 142.449C249.934 142.063 252.699 130.542 247.259 124.941Z" fill="#F1F1F1"/>
<path d="M262.705 156.425H262.417C257.986 156.274 257.233 154.152 256.352 151.779C256.013 150.745 255.562 149.747 255.006 148.801C253.752 146.829 252.236 145.018 250.495 143.412C250.212 143.194 249.964 142.939 249.758 142.654C249.678 142.495 249.702 142.343 249.822 141.441C250.215 138.561 251.425 129.799 246.97 125.244L246.569 124.835L247.114 124.638C247.571 124.463 258.331 120.522 262.849 123.122C267.368 125.722 270.749 131.505 273.08 140.6C273.664 142.645 273.736 144.79 273.291 146.866C272.846 148.942 271.896 150.891 270.516 152.56C269.592 153.705 268.414 154.645 267.064 155.313C265.715 155.981 264.227 156.361 262.705 156.425ZM250.511 142.328C250.599 142.426 250.84 142.654 251.064 142.874C252.858 144.522 254.418 146.384 255.703 148.414C256.279 149.404 256.752 150.444 257.113 151.522C257.954 153.848 258.571 155.523 262.449 155.66C265.093 155.751 267.873 154.409 269.9 152.06C271.201 150.481 272.096 148.637 272.514 146.674C272.931 144.711 272.859 142.683 272.303 140.751C270.02 131.853 266.695 126.108 262.433 123.69C258.803 121.621 250.175 124.342 247.939 125.108C252.178 130.004 251.008 138.606 250.615 141.494C250.567 141.828 250.527 142.176 250.511 142.328Z" fill="#D3CBB7"/>
<path d="M262.641 123.364C261.214 122.708 259.62 122.446 258.042 122.606C260.27 124.168 264.66 127.973 267.536 135.211C271.542 145.238 269.715 150.513 267.68 152.461C265.645 154.409 261.335 155.122 259.468 154.909L258.427 154.796C259.228 155.554 260.422 156.008 262.433 156.077C268.257 156.281 275.003 149.702 272.696 140.706C270.388 131.709 267.031 125.858 262.641 123.364Z" fill="#F1F1F1"/>
<path d="M262.705 156.425H262.417C260.454 156.357 259.1 155.917 258.146 155.031L257.305 154.273L259.516 154.523C261.215 154.712 265.413 154.076 267.392 152.181C269.659 150.013 270.781 144.458 267.16 135.332C264.348 128.245 260.093 124.501 257.802 122.894L256.897 122.258L258.026 122.212C259.681 122.054 261.35 122.348 262.833 123.061C267.288 125.593 270.733 131.489 273.064 140.6C273.648 142.645 273.72 144.79 273.275 146.866C272.83 148.942 271.88 150.891 270.501 152.56C269.578 153.703 268.402 154.642 267.056 155.31C265.709 155.978 264.224 156.358 262.705 156.425ZM260.093 155.288C260.853 155.527 261.648 155.652 262.449 155.66C265.093 155.751 267.873 154.409 269.9 152.06C271.201 150.481 272.096 148.637 272.514 146.674C272.931 144.711 272.859 142.683 272.303 140.751C270.02 131.853 266.695 126.108 262.433 123.69C261.447 123.19 260.346 122.93 259.228 122.932C263.19 126.182 266.186 130.355 267.921 135.036C272.648 146.944 269.155 151.559 267.969 152.689C265.998 154.568 262.192 155.304 260.093 155.288Z" fill="#D3CBB7"/>
<path d="M224.025 150.453C224.025 150.453 234.392 153.272 244.054 149.604C253.716 145.936 259.348 139.872 257.225 132.46C255.102 125.047 251.104 124.789 242.347 124.88C233.591 124.971 231.828 125.691 231.828 125.691C231.828 125.691 231.499 146.663 224.025 150.453Z" fill="#F1F1F1"/>
<path d="M232.982 151.885C229.924 151.901 226.877 151.552 223.912 150.847L222.967 150.597L223.832 150.15C231.043 146.451 231.387 125.934 231.387 125.722V125.479L231.62 125.38C231.7 125.38 233.55 124.623 242.291 124.539C251.032 124.456 255.366 124.736 257.562 132.391C259.613 139.546 254.725 145.958 244.158 149.99C240.593 151.286 236.8 151.929 232.982 151.885ZM225.018 150.324C227.71 150.892 236.09 152.249 243.862 149.286C254.012 145.42 258.731 139.334 256.8 132.611C254.749 125.464 251.096 125.221 242.315 125.32C235.377 125.396 232.893 125.85 232.188 126.032C232.124 128.473 231.483 145.708 225.018 150.324Z" fill="#D3CBB7"/>
<path d="M235.429 115.02C236.424 105.034 229.332 96.2348 219.588 95.365C209.844 94.4953 201.137 101.885 200.141 111.87C199.146 121.855 206.238 130.655 215.982 131.525C225.726 132.394 234.433 125.005 235.429 115.02Z" fill="#6B8E23"/>
<path d="M217.535 131.982C217 131.984 216.465 131.958 215.933 131.906C205.982 131.019 198.716 122.015 199.733 111.836C200.75 101.657 209.668 94.1006 219.61 94.9874C222.025 95.2105 224.363 95.9099 226.474 97.0404C228.586 98.1709 230.423 99.7075 231.868 101.551C234.954 105.415 236.385 110.239 235.874 115.057C234.872 124.683 226.829 131.982 217.535 131.982ZM218.04 95.6771C209.155 95.6771 201.464 102.665 200.542 111.912C199.573 121.674 206.511 130.307 216.021 131.156C225.531 132.005 234.055 124.751 235.033 114.989C235.537 110.361 234.175 105.724 231.219 102.006C229.843 100.251 228.095 98.7872 226.086 97.7091C224.077 96.6309 221.852 95.962 219.554 95.7453C219.052 95.6999 218.547 95.6771 218.04 95.6771Z" fill="#D3CBB7"/>
<path d="M239.176 136.002C240.08 126.942 233.649 118.958 224.812 118.17C215.975 117.381 208.079 124.086 207.176 133.146C206.272 142.206 212.703 150.19 221.54 150.979C230.377 151.768 238.273 145.062 239.176 136.002Z" fill="#6B8E23"/>
<path d="M222.959 151.423C222.478 151.423 221.998 151.423 221.509 151.355C219.32 151.151 217.2 150.516 215.286 149.489C213.372 148.463 211.706 147.069 210.397 145.397C207.595 141.881 206.304 137.491 206.783 133.111C207.705 123.865 215.813 116.983 224.858 117.801C233.903 118.62 240.513 126.79 239.591 136.045C238.718 144.799 231.403 151.423 222.959 151.423ZM223.416 118.491C215.404 118.491 208.418 124.82 207.576 133.187C207.123 137.375 208.356 141.57 211.03 144.935C212.274 146.525 213.856 147.851 215.675 148.827C217.494 149.803 219.508 150.409 221.589 150.604C230.186 151.362 237.909 144.806 238.79 135.969C239.671 127.131 233.39 119.294 224.786 118.536C224.329 118.514 223.856 118.491 223.416 118.491Z" fill="#D3CBB7"/>
<path d="M236.963 125.199C236.963 125.199 237.685 110.533 230.113 102.461C222.542 94.3886 205.325 100.99 202.465 113.072C199.605 125.153 205.67 143.26 213.545 147.936C221.421 152.613 228.127 148.043 232.621 141.555C237.116 135.067 236.963 125.199 236.963 125.199Z" fill="#F1F1F1"/>
<path d="M220.003 150.263C217.622 150.215 215.307 149.524 213.329 148.27C205.133 143.412 199.244 124.956 202.072 113.003C203.859 105.424 210.789 100.589 216.87 99.0954C222.342 97.7539 227.285 98.8983 230.41 102.226C237.965 110.26 237.396 124.448 237.364 125.206C237.364 125.759 237.42 135.325 232.958 141.782C230.482 145.352 225.987 150.263 220.003 150.263ZM221.22 99.3076C219.819 99.3168 218.425 99.4925 217.07 99.8306C211.23 101.263 204.564 105.94 202.858 113.17C200.086 124.873 205.79 142.911 213.754 147.626C222.51 152.818 229.12 145.928 232.285 141.365C236.651 135.052 236.563 125.297 236.563 125.206C236.563 125.055 237.188 110.601 229.809 102.756C228.725 101.63 227.396 100.738 225.914 100.143C224.431 99.5475 222.83 99.2626 221.22 99.3076Z" fill="#D3CBB7"/>
<path d="M129.999 84.1263C129.999 84.1263 124.006 97.8448 122.532 101.756C121.058 105.667 119.504 110.093 119.544 112.624C119.584 115.156 121.234 118.4 122.524 118.506C123.814 118.612 124.751 117.794 124.928 116.073C125.104 114.353 125.032 113.64 125.945 112.693C127.226 111.58 128.615 110.585 130.095 109.722C130.464 109.562 130.744 110.866 129.879 112.291C129.014 113.716 127.115 115.004 128.276 116.452C129.438 117.9 131.834 116.21 133.083 114.989C134.588 113.462 135.655 111.597 136.184 109.57C136.705 107.455 136.448 102.991 136.448 102.991L147.04 93.5322C147.04 93.5322 133.075 91.9405 129.999 84.1263Z" fill="#DEDEDE"/>
<path d="M122.756 118.9H122.492C120.842 118.764 119.175 115.201 119.143 112.647C119.111 110.093 120.569 105.826 122.148 101.65C123.614 97.769 129.566 84.1338 129.622 83.9898L130.015 83.1031L130.376 84.005C133.332 91.5085 147.024 93.1532 147.2 93.1684L148.049 93.2669L136.977 103.158C137.017 104.022 137.161 107.706 136.681 109.676C136.13 111.767 135.027 113.692 133.476 115.27C132.779 115.937 130.976 117.49 129.422 117.407C129.15 117.395 128.885 117.325 128.645 117.203C128.405 117.081 128.197 116.91 128.036 116.702C126.963 115.399 127.932 114.216 128.789 113.17C129.077 112.834 129.345 112.482 129.59 112.117C129.965 111.546 130.139 110.877 130.087 110.207C128.743 111.022 127.475 111.945 126.298 112.966C125.617 113.67 125.561 114.209 125.456 115.399C125.456 115.626 125.408 115.861 125.384 116.156C125.152 117.862 124.191 118.9 122.756 118.9ZM130.007 85.0964C128.685 88.1281 124.15 98.58 122.909 101.885C121.418 105.826 119.912 110.176 119.944 112.617C119.944 115.247 121.651 118.051 122.564 118.127C124.07 118.256 124.455 116.869 124.543 116.035C124.543 115.777 124.591 115.535 124.615 115.323C124.727 114.08 124.799 113.329 125.673 112.435C126.986 111.293 128.417 110.277 129.943 109.403C130.052 109.355 130.175 109.342 130.292 109.367C130.409 109.392 130.515 109.452 130.592 109.54C131.016 109.987 130.984 111.283 130.239 112.511C129.986 112.909 129.702 113.289 129.39 113.648C128.493 114.747 127.98 115.452 128.637 116.255C128.729 116.376 128.849 116.476 128.988 116.547C129.127 116.618 129.281 116.658 129.438 116.664C130.44 116.717 131.842 115.717 132.867 114.754C134.321 113.278 135.352 111.476 135.864 109.517C136.368 107.478 136.128 103.09 136.128 103.044V102.87L146.255 93.8202C143.25 93.3276 133.236 91.3342 130.007 85.0964Z" fill="#D3CBB7"/>
<path d="M134.349 113.542C132.683 113.504 131.489 113.125 130.816 112.42C130.455 112.06 130.254 111.582 130.255 111.086L131.057 111.147C131.076 111.434 131.207 111.704 131.425 111.904C131.794 112.276 132.595 112.723 134.365 112.761L134.349 113.542Z" fill="#D3CBB7"/>
<path d="M125.072 113.132C123.949 113.125 122.858 112.777 121.96 112.14C121.061 111.503 120.403 110.61 120.081 109.593L120.882 109.396C121.191 110.391 121.88 111.242 122.816 111.783C123.752 112.324 124.868 112.516 125.945 112.321L126.049 113.079C125.725 113.116 125.398 113.134 125.072 113.132Z" fill="#D3CBB7"/>
<path d="M122.516 115.944C121.558 115.921 120.632 115.61 119.872 115.057L120.361 114.459C120.457 114.527 122.708 116.134 124.423 114.345L125.016 114.853C124.707 115.195 124.324 115.47 123.893 115.658C123.461 115.847 122.991 115.944 122.516 115.944Z" fill="#D3CBB7"/>
<path d="M135.551 103.393C131.89 103.393 129.142 102.521 127.299 100.801C125.935 99.4986 125.162 97.7449 125.144 95.912H125.945C125.982 97.5371 126.672 99.0876 127.876 100.247C129.687 101.953 132.587 102.733 136.505 102.582L136.545 103.34L135.551 103.393Z" fill="#D3CBB7"/>
<path d="M132.995 80.0561C132.995 80.0561 130.175 80.1016 129.999 84.1262C129.823 88.1508 133.204 94.3507 139.757 95.3739C146.311 96.3971 150.357 92.7136 151.543 89.6743C152.728 86.635 137.466 77.6914 132.995 80.0561Z" fill="#6B8E23"/>
<path d="M141.944 95.9348C141.19 95.9322 140.437 95.8714 139.693 95.7529C132.907 94.6842 129.414 88.1736 129.598 84.1035C129.767 80.2456 132.306 79.7454 132.875 79.6848C136.28 77.9794 144.741 81.9586 149.115 85.4754C150.677 86.7335 152.432 88.5071 151.919 89.8107C151.116 91.6724 149.729 93.2571 147.946 94.3518C146.163 95.4465 144.069 95.9989 141.944 95.9348ZM133.003 80.4351C132.891 80.4351 130.6 80.5564 130.4 84.1414C130.223 87.931 133.484 93.9945 139.821 95.0025C146.671 96.0788 150.237 91.9026 151.166 89.5454C151.374 89.0225 150.805 87.8325 148.602 86.0514C144.412 82.6862 136.096 78.8207 133.188 80.3821L133.1 80.4275L133.003 80.4351Z" fill="#D3CBB7"/>
<path d="M140.334 69.104C140.334 69.104 133.412 76.979 132.202 80.9808C130.992 84.9827 134.013 92.3498 141.688 93.2366C149.363 94.1234 153.93 88.0978 153.93 88.0978L140.334 69.104Z" fill="#DEDEDE"/>
<path d="M143.234 93.7065C142.699 93.7058 142.164 93.6754 141.632 93.6156C139.996 93.4312 138.422 92.9103 137.021 92.0893C135.621 91.2683 134.427 90.1672 133.524 88.8633C131.778 86.3546 131.121 83.2243 131.81 80.8823C133.027 76.8425 139.733 69.1874 140.014 68.8615L140.358 68.475L154.411 88.0978L154.25 88.3176C154.21 88.3707 150.1 93.7065 143.234 93.7065ZM140.302 69.7407C138.9 71.3703 133.604 77.7066 132.587 81.1097C131.954 83.2167 132.587 86.1727 134.189 88.4692C135.02 89.6882 136.128 90.7166 137.432 91.4796C138.737 92.2427 140.204 92.7212 141.728 92.8804C148.274 93.6383 152.536 89.1362 153.417 88.1054L140.302 69.7407Z" fill="#D3CBB7"/>
<path d="M144.292 62.7526C141.205 65.4538 139.315 69.1617 139.004 73.1287C138.66 79.5484 144.909 86.9534 153.065 86.2409C161.221 85.5285 151.006 62.4419 144.292 62.7526Z" fill="#6B8E23"/>
<path d="M151.983 86.6654C148.655 86.6319 145.473 85.37 143.114 83.1486C141.671 81.8675 140.524 80.3167 139.748 78.5945C138.971 76.8722 138.582 75.0161 138.604 73.1439C138.912 69.0795 140.856 65.2816 144.036 62.5328L144.14 62.457H144.428C149.628 62.457 155.965 74.4551 156.446 81.0642C156.702 84.4977 155.508 86.4986 153.097 86.7108C152.728 86.6502 152.36 86.6654 151.983 86.6654ZM144.452 63.124C141.514 65.7561 139.715 69.3273 139.405 73.1439C139.382 74.9141 139.749 76.6694 140.483 78.2979C141.217 79.9265 142.301 81.3926 143.667 82.6028C144.884 83.7578 146.352 84.6477 147.969 85.2106C149.587 85.7735 151.315 85.9958 153.033 85.862C155.476 85.6497 155.813 83.1182 155.653 81.0263C155.14 74.1292 148.851 63.1543 144.452 63.124Z" fill="#D3CBB7"/>
<path d="M147.745 67.5048C147.745 67.5048 144.068 71.6279 146.143 78.5858C147.411 82.7701 149.935 86.5166 153.409 89.3711C153.409 89.3711 163.448 103.014 167.662 105.144C171.876 107.273 179.335 107.342 194.445 101.536C209.555 95.7302 215.516 87.2338 217.831 82.8756C220.147 78.5175 206.559 58.4248 201.864 55.5067C197.302 52.828 191.94 51.6329 186.594 52.1036C183.709 52.4291 180.851 52.9355 178.037 53.6195L147.745 67.5048Z" fill="#6B8E23"/>
<path d="M174.184 106.849C171.856 106.919 169.545 106.448 167.454 105.477C163.28 103.385 153.834 90.6444 153.089 89.6364C149.569 86.7384 147.014 82.9365 145.734 78.6919C143.619 71.6355 147.208 67.4366 147.336 67.2623L147.473 67.1637L177.869 53.2481C180.724 52.5549 183.626 52.0484 186.554 51.7323C191.992 51.2616 197.445 52.4774 202.088 55.196C206.799 58.1216 220.692 78.366 218.2 83.05C215.212 88.6587 208.698 96.4881 194.606 101.9C185.953 105.212 179.271 106.849 174.184 106.849ZM147.961 67.8383C147.545 68.3688 144.676 72.3025 146.535 78.5175C147.789 82.6275 150.264 86.3105 153.666 89.1286L153.746 89.2044C153.85 89.3408 163.776 102.809 167.862 104.856C172.83 107.349 181.482 106.167 194.301 101.24C208.161 95.9348 214.555 88.2494 217.479 82.7544C219.578 78.798 206.399 58.8265 201.64 55.8781C197.155 53.25 191.888 52.0741 186.634 52.5281C183.771 52.857 180.934 53.3634 178.141 54.0439L147.961 67.8383Z" fill="#D3CBB7"/>
<path d="M145.013 65.2235C145.013 65.2235 141.384 69.3618 143.467 76.3044C144.735 80.4888 147.259 84.2352 150.733 87.0898C150.733 87.0898 160.772 100.733 164.986 102.855C169.2 104.977 176.659 105.053 191.769 99.2546C206.879 93.4564 212.832 84.9524 215.156 80.5867C217.479 76.221 203.883 56.1434 199.188 53.2254C194.625 50.5429 189.259 49.3477 183.91 49.8223C181.028 50.1482 178.172 50.6546 175.361 51.3382L145.013 65.2235Z" fill="#F1F1F1"/>
<path d="M171.532 104.568C169.204 104.639 166.893 104.168 164.802 103.196C160.628 101.096 151.182 88.3631 150.437 87.3475C146.916 84.4541 144.36 80.654 143.082 76.4105C140.967 69.3542 144.556 65.1552 144.684 64.9809L144.821 64.8824L175.161 50.9667C178.016 50.2736 180.918 49.7671 183.846 49.4509C189.284 48.9763 194.738 50.1924 199.381 52.9146C204.091 55.8402 217.984 76.0846 215.492 80.7686C212.504 86.3773 205.99 94.2067 191.898 99.6108C183.269 102.931 176.587 104.568 171.532 104.568ZM145.277 65.5645C144.861 66.0951 141.993 70.0287 143.851 76.2438C145.097 80.3571 147.573 84.042 150.982 86.8548L151.062 86.9382C151.166 87.0746 161.092 100.543 165.178 102.589C170.146 105.083 178.798 103.893 191.617 98.9741C205.485 93.6686 211.879 85.9832 214.795 80.4882C216.902 76.5318 203.723 56.5603 198.964 53.6119C194.479 50.9838 189.212 49.8079 183.958 50.2619C181.095 50.5908 178.258 51.0971 175.466 51.7777L145.277 65.5645Z" fill="#D3CBB7"/>
<path d="M181.304 57.4199C184.758 45.9505 177.729 34.004 165.605 30.7369C153.481 27.4697 140.853 34.119 137.4 45.5885C133.946 57.058 140.975 69.0044 153.099 72.2715C165.223 75.5387 177.851 68.8894 181.304 57.4199Z" fill="#6B8E23"/>
<path d="M159.306 73.4773C153.255 73.4666 147.447 71.223 143.117 67.2236C138.788 63.2242 136.278 57.7846 136.123 52.0619C135.967 46.3392 138.178 40.7849 142.285 36.5804C146.392 32.376 152.07 29.8531 158.113 29.5485C164.155 29.2438 170.085 31.1815 174.641 34.9492C179.197 38.7169 182.019 44.0175 182.507 49.7234C182.996 55.4293 181.112 61.0904 177.256 65.5025C173.4 69.9145 167.877 72.7294 161.862 73.3485C161.013 73.4362 160.16 73.4792 159.306 73.4773ZM159.394 30.2752C158.57 30.2767 157.746 30.3197 156.926 30.4041C151.149 31.0106 145.85 33.7254 142.155 37.971C138.461 42.2166 136.663 47.6581 137.144 53.1383C137.625 58.6185 140.347 63.705 144.731 67.3162C149.115 70.9273 154.815 72.7781 160.619 72.4751C166.422 72.172 171.872 69.739 175.81 65.6934C179.747 61.6477 181.86 56.3087 181.701 50.8118C181.541 45.3148 179.121 40.0935 174.955 36.2583C170.79 32.4231 165.207 30.2766 159.394 30.2752Z" fill="#D3CBB7"/>
<path d="M176.305 60.9813C185.119 50.4075 183.204 35.076 172.027 26.7373C160.85 18.3987 144.643 20.2106 135.829 30.7843C127.015 41.3581 128.93 56.6896 140.107 65.0283C151.284 73.3669 167.49 71.555 176.305 60.9813Z" fill="#ABABAB"/>
<path d="M156.021 70.6502C150.967 70.6413 146.024 69.2482 141.788 66.6393C137.553 64.0304 134.206 60.3173 132.153 55.9483C130.1 51.5794 129.428 46.7415 130.217 42.0189C131.007 37.2964 133.226 32.8911 136.604 29.3353C139.983 25.7794 144.378 23.225 149.258 21.9805C154.137 20.736 159.294 20.8547 164.104 22.3223C168.914 23.7898 173.172 26.5434 176.364 30.2506C179.556 33.9577 181.545 38.4598 182.091 43.2131C182.834 49.7461 180.804 56.2908 176.447 61.4077C172.09 66.5246 165.763 69.7947 158.857 70.4987C157.915 70.5967 156.969 70.6473 156.021 70.6502ZM156.085 21.8774C155.164 21.8806 154.245 21.9287 153.329 22.0214C148.341 22.5347 143.625 24.4358 139.778 27.4844C135.932 30.533 133.127 34.5921 131.719 39.1485C130.311 43.7049 130.363 48.554 131.867 53.0827C133.372 57.6113 136.263 61.6162 140.173 64.5909C144.084 67.5655 148.839 69.3765 153.838 69.7947C158.836 70.2129 163.853 69.2196 168.255 66.9403C172.657 64.6611 176.245 61.1983 178.567 56.9898C180.889 52.7812 181.839 48.016 181.298 43.2965C180.616 37.4176 177.668 31.9827 173.016 28.0311C168.365 24.0796 162.337 21.8887 156.085 21.8774Z" fill="#D3CBB7"/>
<path d="M173.751 49.3372C174.162 48.5397 174.339 47.6523 174.264 46.7678C174.104 44.9336 171.932 41.5532 171.059 40.6361C170.186 39.7191 168.76 40.8029 168.76 40.8029L167.157 38.0819C166.254 36.4956 165.026 35.095 163.546 33.9613C162.065 32.8275 160.361 31.9833 158.533 31.4777C156.705 30.972 154.789 30.8149 152.896 31.0156C151.003 31.2163 149.171 31.7707 147.507 32.6466C145.842 33.5226 144.378 34.7026 143.2 36.1182C142.021 37.5338 141.152 39.1568 140.642 40.893C140.132 42.6291 139.991 44.4438 140.229 46.2317C140.466 48.0195 141.076 49.745 142.025 51.3078L145.341 56.9544L143.483 54.1046C143.483 54.1046 141.784 54.6579 142.129 55.863C142.473 57.0681 144.364 60.6001 145.926 61.6915C146.726 62.2633 147.689 62.5958 148.69 62.6465L153.073 70.0969C155.003 70.3018 156.951 70.3018 158.881 70.0969C162.996 69.6749 166.942 68.3206 170.385 66.1489C173.829 63.9771 176.668 61.052 178.662 57.6214L173.751 49.3372Z" fill="#D3CBB7"/>
<path d="M156.093 70.6426C155.06 70.6437 154.027 70.5881 153.001 70.4759H152.8L148.426 63.033C147.426 62.9374 146.471 62.5892 145.662 62.0249C143.963 60.835 142.065 57.2045 141.72 55.9615C141.636 55.5196 141.724 55.064 141.967 54.6783C142.21 54.2926 142.591 54.0028 143.042 53.862L141.648 51.4973C139.816 48.2622 139.402 44.4755 140.495 40.9542C141.588 37.433 144.101 34.4593 147.491 32.6748C150.88 30.8903 154.876 30.438 158.615 31.4155C162.354 32.3931 165.537 34.722 167.478 37.9L168.872 40.2572C169.226 40.0115 169.658 39.8894 170.097 39.9115C170.535 39.9336 170.951 40.0986 171.275 40.3784C172.189 41.2955 174.48 44.7365 174.616 46.7299C174.696 47.6165 174.539 48.5079 174.16 49.322L179.055 57.6593L178.951 57.8487C176.92 61.3292 174.035 64.2966 170.538 66.5008C167.04 68.7051 163.034 70.0814 158.857 70.5138C157.939 70.6046 157.016 70.6476 156.093 70.6426ZM153.297 69.7407C158.246 70.2561 163.245 69.3808 167.671 67.224C172.096 65.0672 175.752 61.7246 178.181 57.6138L173.294 49.2765L173.39 49.0946C173.773 48.3618 173.936 47.5441 173.863 46.7299C173.711 44.9942 171.588 41.6972 170.731 40.8332C170.098 40.1889 169.032 40.9923 168.984 41.0302L168.615 41.3107L166.781 38.2789C165.886 36.7616 164.685 35.4257 163.245 34.3476C161.805 33.2695 160.155 32.4702 158.388 31.9955C156.622 31.5208 154.773 31.3799 152.949 31.5808C151.125 31.7818 149.361 32.3207 147.757 33.1667C146.153 34.0127 144.741 35.1493 143.601 36.5117C142.462 37.874 141.617 39.4353 141.115 41.1065C140.102 44.4816 140.547 48.0993 142.353 51.1638L145.67 56.8104L144.981 57.1893L143.298 54.6199C142.922 54.8094 142.321 55.196 142.497 55.8023C142.826 56.9468 144.668 60.3954 146.151 61.4262C146.889 61.9516 147.776 62.2576 148.698 62.3054H148.923L153.297 69.7407Z" fill="#D3CBB7"/>
<path d="M166.973 42.5158C165.57 40.1346 163.225 38.378 160.453 37.6319C157.681 36.8857 154.71 37.2112 152.191 38.5366L150.229 39.5674C147.712 40.895 145.855 43.1136 145.066 45.7357C144.277 48.3579 144.621 51.1689 146.022 53.5513L155.853 70.2257C156.845 70.2327 157.838 70.1871 158.825 70.0893C162.481 69.7142 166.009 68.6012 169.172 66.8256C172.334 65.0499 175.057 62.653 177.156 59.7966L166.973 42.5158Z" fill="#F1F1F1"/>
<path d="M156.093 70.6427H155.653L145.702 53.7332C144.252 51.2621 143.897 48.3476 144.716 45.6294C145.534 42.9111 147.459 40.6111 150.068 39.234L152.031 38.2032C154.642 36.8316 157.722 36.4963 160.594 37.2707C163.466 38.0452 165.896 39.8662 167.35 42.3339L177.661 59.8573L177.517 60.0544C175.381 62.9515 172.614 65.3825 169.402 67.184C166.191 68.9855 162.609 70.1157 158.897 70.4986C157.966 70.5961 157.03 70.6442 156.093 70.6427ZM157.495 37.6196C155.72 37.6184 153.975 38.0462 152.424 38.8626L150.461 39.901C148.037 41.1779 146.248 43.3126 145.486 45.8364C144.725 48.3602 145.053 51.0668 146.399 53.3618L156.125 69.8847C157.022 69.885 157.918 69.8395 158.809 69.7483C162.366 69.3809 165.8 68.3056 168.886 66.593C171.973 64.8805 174.641 62.5694 176.715 59.8118L166.653 42.7053C165.744 41.1622 164.416 39.8771 162.806 38.9829C161.196 38.0887 159.362 37.618 157.495 37.6196Z" fill="#D3CBB7"/>
<path d="M154.956 52.6796C155.324 53.3087 155.3 53.9908 154.899 54.1955C154.499 54.4001 153.874 54.0742 153.505 53.4376C153.137 52.8009 153.161 52.1263 153.561 51.9217C153.962 51.7171 154.547 52.0126 154.956 52.6796Z" fill="#D3CBB7"/>
<path d="M163.063 48.3519C163.432 48.981 163.408 49.6631 163.007 49.8678C162.607 50.0724 161.982 49.7389 161.605 49.1098C161.229 48.4808 161.269 47.8062 161.669 47.594C162.07 47.3818 162.695 47.7304 163.063 48.3519Z" fill="#D3CBB7"/>
<path d="M159.61 56.3025L159.274 55.6128L162.615 54.1576L158.753 49.61L159.378 49.1325L163.881 54.4456L159.61 56.3025Z" fill="#D3CBB7"/>
<path d="M165.275 58.3642C165.407 58.588 165.467 58.8441 165.445 59.0999C165.424 59.3557 165.323 59.5998 165.155 59.8012C164.986 60.0025 164.759 60.1522 164.501 60.2311C164.243 60.31 163.966 60.3146 163.705 60.2444C163.444 60.1742 163.211 60.0323 163.035 59.8366C162.86 59.641 162.749 59.4005 162.718 59.1455C162.687 58.8906 162.737 58.6327 162.861 58.4045C162.986 58.1764 163.179 57.9882 163.416 57.8639C163.733 57.698 164.106 57.6574 164.454 57.7512C164.803 57.8449 165.098 58.0653 165.275 58.3642Z" fill="#D3CBB7"/>
<path d="M149.636 51.8459L148.835 51.6716C148.835 51.6716 149.556 48.9885 153.177 48.7611L153.225 49.5191C150.213 49.7086 149.644 51.8232 149.636 51.8459Z" fill="#D3CBB7"/>
<path d="M158.865 46.3206L158.104 46.078C158.104 46.078 159.146 43.2131 163.015 44.0089L162.847 44.7668C159.698 44.0998 158.897 46.2296 158.865 46.3206Z" fill="#D3CBB7"/>
<path d="M164.505 67.3987C163.241 67.368 161.984 67.1924 160.764 66.8757L160.98 66.1178C162.492 66.5221 164.071 66.6583 165.635 66.5195C167.223 66.2612 168.671 65.5026 169.745 64.367C170.458 63.168 171.025 61.8967 171.436 60.5773L172.237 60.8123C172.189 60.9335 171.195 63.844 170.41 64.8066C169.22 66.0959 167.595 66.9557 165.811 67.2395C165.383 67.3339 164.945 67.3872 164.505 67.3987Z" fill="#D3CBB7"/>
<path d="M137.105 59.971C136.511 54.9234 137.598 49.8262 140.215 45.3915C142.832 40.9568 146.847 37.4061 151.701 35.2355C156.555 33.0649 162.004 32.3828 167.287 33.2845C172.57 34.1862 177.424 36.6266 181.17 40.2648C180.262 36.6025 178.47 33.1887 175.935 30.2904C173.401 27.3921 170.191 25.0879 166.559 23.5582C162.926 22.0284 158.968 21.3146 154.996 21.4725C151.023 21.6304 147.142 22.6557 143.658 24.4683C140.174 26.281 137.18 28.8316 134.911 31.9209C132.642 35.0101 131.16 38.554 130.58 42.2755C129.999 45.9969 130.337 49.7949 131.567 53.3723C132.796 56.9497 134.884 60.2095 137.666 62.8966C137.418 61.9328 137.231 60.9558 137.105 59.971Z" fill="#F1F1F1"/>
<path d="M138.371 64.1623L137.33 63.1997C134.51 60.4708 132.395 57.162 131.151 53.5319C129.907 49.9018 129.566 46.0486 130.157 42.2735C130.747 38.4984 132.252 34.9035 134.554 31.7697C136.856 28.6359 139.893 26.0481 143.427 24.2084C146.961 22.3687 150.897 21.3269 154.928 21.1645C158.958 21.0021 162.973 21.7234 166.66 23.2721C170.347 24.8208 173.605 27.1549 176.181 30.0921C178.756 33.0294 180.579 36.4901 181.506 40.2041L181.835 41.5305L180.865 40.5527C177.178 36.9816 172.404 34.5875 167.211 33.7039C162.017 32.8203 156.661 33.4912 151.889 35.6232C147.117 37.7552 143.167 41.2421 140.589 45.5982C138.011 49.9543 136.933 54.9626 137.506 59.9255C137.62 60.9053 137.799 61.8774 138.043 62.8359L138.371 64.1623ZM156.085 21.8773C155.164 21.8802 154.245 21.9282 153.329 22.0213C146.643 22.7174 140.521 25.8938 136.306 30.8541C132.092 35.8143 130.129 42.1533 130.848 48.4807C131.394 53.3716 133.53 57.982 136.961 61.6763C136.857 61.1154 136.769 60.5621 136.713 60.0088C136.138 55.0073 137.188 49.9589 139.723 45.5362C142.258 41.1135 146.157 37.5264 150.901 35.2528C155.645 32.9792 161.009 32.1271 166.277 32.8099C171.546 33.4927 176.47 35.678 180.393 39.0748C178.839 34.1138 175.634 29.76 171.255 26.6613C166.875 23.5626 161.554 21.8847 156.085 21.8773Z" fill="#D3CBB7"/>
<path d="M198.596 74.3351C204.965 73.6805 209.495 67.6308 208.713 60.8226C207.931 54.0145 202.134 49.0261 195.764 49.6807C189.395 50.3353 184.865 56.385 185.647 63.1932C186.429 70.0013 192.226 74.9897 198.596 74.3351Z" fill="#6B8E23"/>
<path d="M197.474 74.7734C191.361 74.7734 186.001 69.8241 185.248 63.2301C184.833 59.9446 185.702 56.6289 187.691 53.9075C188.592 52.6271 189.778 51.5496 191.167 50.7512C192.556 49.9529 194.114 49.4532 195.73 49.2876C197.346 49.122 198.981 49.2945 200.518 49.7929C202.056 50.2914 203.459 51.1035 204.628 52.1719C207.161 54.4485 208.755 57.5024 209.128 60.7884C209.501 64.0745 208.627 67.379 206.663 70.1121C205.655 71.5446 204.289 72.7201 202.686 73.5344C201.083 74.3487 199.293 74.7769 197.474 74.781V74.7734ZM196.897 49.9966C196.533 49.9952 196.169 50.0129 195.807 50.0497C194.311 50.2198 192.872 50.6914 191.585 51.4328C190.298 52.1741 189.195 53.1679 188.348 54.3471C186.466 56.9141 185.645 60.0452 186.041 63.1467C186.794 69.7407 192.45 74.5915 198.555 73.9624C200.051 73.7913 201.49 73.3192 202.777 72.578C204.063 71.8367 205.167 70.8434 206.014 69.6649C207.855 67.0782 208.67 63.9586 208.314 60.8584C207.957 57.7582 206.453 54.8771 204.067 52.7251C202.124 50.9968 199.564 50.0229 196.897 49.9966Z" fill="#D3CBB7"/>
<path d="M223.856 52.2022C218.493 51.0483 213.013 50.446 207.512 50.4059C197.386 50.1785 191.433 51.1032 189.51 55.8706C187.587 60.638 188.028 68.3385 194.269 70.8852C197.754 72.3025 202.866 71.484 206.591 70.6806C210.317 69.8771 219.41 66.277 222.31 61.9492C225.21 57.6214 225.234 54.1955 223.856 52.2022Z" fill="#F1F1F1"/>
<path d="M199.02 72.0069C197.351 72.0497 195.689 71.7765 194.133 71.2035C187.555 68.5204 187.283 60.3726 189.166 55.7038C191.209 50.6257 197.458 49.7692 207.592 49.9966C213.134 50.0542 218.653 50.669 224.057 51.8308L224.201 51.8762L224.289 51.9975C225.939 54.4229 225.37 58.114 222.687 62.1235C219.69 66.6711 210.18 70.2637 206.719 71.014C204.199 71.613 201.617 71.946 199.02 72.0069ZM204.78 50.7242C196.656 50.7242 191.609 51.7701 189.911 55.9766C188.14 60.3651 188.356 68.0202 194.445 70.5062C197.882 71.9008 202.986 71.0443 206.527 70.2788C209.892 69.5209 219.121 66.0496 221.998 61.7142C224.401 58.0989 225.01 54.6806 223.656 52.5281C218.358 51.4165 212.954 50.8222 207.528 50.7545C206.551 50.7393 205.638 50.7242 204.756 50.7242H204.78Z" fill="#D3CBB7"/>
<path d="M234.488 59.5011C234.488 59.5011 231.139 53.7939 224.874 52.2022C218.609 50.6105 212.904 54.476 210.308 58.2657C207.713 62.0553 208.866 63.2983 208.866 63.2983C208.866 63.2983 218.016 58.963 222.751 58.152C227.486 57.341 234.488 59.5011 234.488 59.5011Z" fill="#6B8E23"/>
<path d="M208.786 63.7682L208.586 63.5484C208.45 63.3968 207.312 61.9567 209.996 58.061C212.824 53.9454 218.737 50.2467 225.002 51.8384C231.267 53.43 234.696 59.0766 234.84 59.3116L235.337 60.1604L234.368 59.8573C234.295 59.8573 227.421 57.7502 222.847 58.5309C218.272 59.3116 209.155 63.5939 209.067 63.6393L208.786 63.7682ZM221.981 52.2173C217.174 52.2173 212.912 55.249 210.669 58.4703C208.946 60.9638 208.954 62.2599 209.067 62.7829C210.869 61.9492 218.44 58.5006 222.687 57.7805C226.42 57.1439 231.411 58.2732 233.55 58.8416C232.365 57.2272 229.352 53.7332 224.778 52.566C223.866 52.3343 222.926 52.2171 221.981 52.2173Z" fill="#D3CBB7"/>
<path d="M208.634 67.141C208.634 67.141 207.16 63.1543 213.081 57.9776C219.001 52.801 229.905 54.6655 233.406 58.1216C236.907 61.5778 236.531 67.6716 233.719 70.6199C232.189 72.2997 230.27 73.6225 228.111 74.4854C228.111 74.4854 222.623 65.6024 208.634 67.141Z" fill="#F1F1F1"/>
<path d="M227.95 74.9477L227.782 74.6748C227.734 74.5915 222.222 66.0268 208.706 67.52H208.386L208.273 67.2319C208.217 67.0576 206.791 62.9421 212.832 57.6669C218.873 52.3916 229.881 54.0667 233.719 57.8184C237.436 61.4489 236.923 67.7928 234.047 70.8321C232.472 72.5639 230.491 73.9239 228.263 74.8037L227.95 74.9477ZM211.807 66.6104C222.27 66.6104 227.277 72.6739 228.287 74.0382C230.257 73.1737 232.014 71.9293 233.446 70.3849C236.114 67.5882 236.563 61.7445 233.15 58.4096C229.945 55.2642 219.362 53.0435 213.377 58.2808C208.642 62.4191 208.794 65.7767 208.963 66.7544C209.917 66.6509 210.878 66.5952 211.839 66.5877L211.807 66.6104Z" fill="#D3CBB7"/>
<path d="M203.723 74.978C203.723 74.978 205.99 69.3541 208.634 67.141C211.278 64.9278 219.274 64.0335 225.218 65.9738C231.163 67.9141 230.113 74.3868 229 76.4105C227.886 78.4342 224.481 80.0637 224.481 80.0637L203.723 74.978Z" fill="#F1F1F1"/>
<path d="M224.553 80.4654L203.186 75.2357L203.346 74.8416C203.442 74.6066 205.678 69.0813 208.394 66.8606C211.11 64.6398 219.145 63.5787 225.371 65.61C226.346 65.8936 227.242 66.3816 227.991 67.0377C228.74 67.6938 229.323 68.5011 229.697 69.3996C230.587 71.7449 230.472 74.3264 229.376 76.5924C228.223 78.707 224.826 80.3366 224.69 80.3821L224.553 80.4654ZM204.26 74.7203L224.457 79.662C225.082 79.3437 227.75 77.9112 228.671 76.2362C229.647 74.1624 229.747 71.814 228.952 69.6725C228.619 68.8783 228.101 68.1654 227.436 67.5868C226.772 67.0081 225.978 66.5785 225.114 66.33C219.226 64.4125 211.438 65.3674 208.914 67.429C206.759 69.2026 204.828 73.4091 204.26 74.7203Z" fill="#D3CBB7"/>
<path d="M204.396 74.0609C203.471 74.312 202.638 74.8029 201.992 75.4782C200.879 76.7263 199.518 77.7562 197.986 78.51C195.583 79.8212 192.979 79.8742 193.933 82.2996C194.886 84.725 198.443 84.3839 200.19 83.9898C201.936 83.5957 202.657 82.9893 204.003 82.004C205.349 81.0187 206.367 74.2276 206.407 73.8941C206.447 73.5607 204.396 74.0609 204.396 74.0609Z" fill="#F1F1F1"/>
<path d="M197.738 84.7098C196.096 84.7098 194.221 84.2778 193.532 82.4891C192.683 80.329 194.277 79.6923 195.935 79.0178C196.55 78.7845 197.15 78.5162 197.73 78.2144C199.044 77.5868 200.218 76.7276 201.191 75.6829L201.672 75.213C202.376 74.4837 203.285 73.9582 204.292 73.6971C206.279 73.2878 206.527 73.5228 206.647 73.6365L206.799 73.7805V74.0458C206.799 74.0458 206.799 74.1898 206.743 74.3641C205.942 79.1012 205.101 81.7236 204.22 82.3754L203.915 82.5952C202.876 83.4872 201.617 84.1179 200.254 84.4294C199.429 84.6115 198.585 84.7056 197.738 84.7098ZM204.476 74.4323C203.626 74.666 202.861 75.1171 202.265 75.7359L201.8 76.2059C200.768 77.2991 199.532 78.2034 198.155 78.8738C197.544 79.1874 196.916 79.4682 196.272 79.7151C194.445 80.473 193.724 80.7989 194.277 82.2238C195.198 84.5734 198.94 83.9368 200.069 83.6791C201.322 83.3953 202.478 82.8135 203.426 81.9889L203.723 81.7691C204.051 81.5265 204.909 80.3214 205.95 74.2352C205.454 74.2792 204.962 74.3526 204.476 74.455V74.4323Z" fill="#D3CBB7"/>
<path d="M210.765 71.8098C210.765 71.8098 207.192 71.0519 205.437 72.3556C203.683 73.6592 203.835 78.8965 203.971 82.0647C204.107 85.2328 205.301 87.7719 206.583 88.1281C207.088 88.3183 207.635 88.3887 208.175 88.3332C208.716 88.2777 209.233 88.098 209.684 87.8098C210.196 87.3323 209.684 82.7165 210.02 78.9647C210.357 75.2129 210.765 71.8098 210.765 71.8098Z" fill="#F1F1F1"/>
<path d="M207.921 88.7496C207.423 88.7508 206.928 88.6766 206.455 88.5299C204.925 88.0524 203.715 85.339 203.571 82.0798C203.378 77.6763 203.442 73.4091 205.173 72.0676C207.056 70.6124 210.685 71.4082 210.837 71.4461L211.182 71.5219L211.142 71.8554C211.142 71.8554 210.749 75.3267 210.397 79.033C210.236 80.7914 210.268 82.7696 210.292 84.3385C210.292 86.8927 210.292 87.7492 209.956 88.0903C209.388 88.5427 208.663 88.7779 207.921 88.7496ZM208.45 71.9539C207.475 71.8948 206.507 72.1397 205.694 72.6512C204.011 73.9397 204.268 79.6242 204.372 82.0495C204.508 85.2025 205.694 87.4915 206.703 87.8098C207.141 87.9735 207.613 88.0382 208.082 87.9987C208.55 87.9593 209.003 87.8167 209.403 87.5824C209.544 86.5192 209.579 85.4458 209.507 84.3764C209.507 82.7696 209.451 80.7611 209.619 78.9723C209.908 75.9406 210.22 73.0832 210.324 72.151C209.706 72.0383 209.079 71.9724 208.45 71.9539Z" fill="#D3CBB7"/>
<path d="M210.765 71.8099C209.764 74.2011 209.07 76.6974 208.698 79.2452C208.233 83.0348 210.389 88.0978 211.222 88.5374C212.055 88.977 214.427 88.8482 214.947 87.734C215.468 86.6198 215.091 82.815 215.156 80.5867C215.22 78.3584 216.349 73.5758 216.181 72.1055C216.013 70.6351 212.52 70.4607 210.765 71.8099Z" fill="#F1F1F1"/>
<path d="M212.48 89.1589C211.979 89.1764 211.481 89.0775 211.03 88.8709C209.932 88.2873 207.825 82.8757 208.298 79.1997C208.675 76.6186 209.377 74.0894 210.389 71.6659L210.429 71.5749L210.509 71.5143C211.201 71.0235 212.008 70.6983 212.862 70.5664C213.716 70.4344 214.591 70.4996 215.412 70.7563C215.713 70.8452 215.981 71.0113 216.188 71.2361C216.394 71.461 216.531 71.7357 216.582 72.0297C216.563 73.5187 216.399 75.0029 216.093 76.4636C215.84 77.8233 215.661 79.1945 215.556 80.5716C215.556 81.2764 215.556 82.1405 215.596 83.0576C215.66 85.0964 215.716 87.0216 215.316 87.8629C215.166 88.1244 214.96 88.3537 214.712 88.5364C214.464 88.719 214.179 88.851 213.874 88.924C213.425 89.0704 212.954 89.1497 212.48 89.1589ZM211.094 72.0448C210.133 74.3786 209.464 76.8102 209.099 79.2907C208.634 83.0803 210.829 87.8856 211.422 88.2115C212.134 88.4533 212.913 88.4533 213.625 88.2115C213.824 88.1677 214.011 88.0869 214.176 87.9736C214.342 87.8604 214.481 87.7171 214.587 87.5521C214.915 86.8775 214.851 84.8614 214.795 83.0879C214.795 82.1632 214.739 81.284 214.755 80.5564C214.857 79.1485 215.039 77.7468 215.3 76.3575C215.589 74.9608 215.752 73.5434 215.788 72.1206C215.748 71.7796 215.396 71.5749 215.107 71.4612C214.435 71.2642 213.725 71.2143 213.029 71.3154C212.334 71.4165 211.672 71.666 211.094 72.0448Z" fill="#D3CBB7"/>
<path d="M216.181 72.1055C216.181 72.1055 218.32 71.1429 219.866 71.9387C221.413 72.7345 221.781 74.925 221.573 76.0088C221.365 77.0926 220.636 83.5351 220.139 85.104C219.642 86.6729 218.384 87.3778 217.367 87.302C216.349 87.2262 215.644 85.9908 215.484 84.6265C215.324 83.2622 215.156 80.617 215.156 80.617L216.181 72.1055Z" fill="#F1F1F1"/>
<path d="M217.551 87.6582H217.319C215.997 87.5218 215.252 86.0438 215.091 84.6265C214.931 83.2091 214.755 80.6246 214.755 80.5943L215.845 71.8553L216.045 71.7644C216.141 71.7189 218.384 70.726 220.091 71.6052C221.797 72.4844 222.214 74.9704 221.998 76.077C221.933 76.4181 221.805 77.3655 221.661 78.4569C221.413 80.7166 221.044 82.9629 220.555 85.1874C220.401 85.8496 220.026 86.4474 219.485 86.8923C218.944 87.3373 218.266 87.6058 217.551 87.6582ZM215.556 80.6322C215.556 80.6322 215.732 83.2319 215.885 84.5583C216.037 85.8846 216.686 86.8321 217.407 86.8927C218.128 86.9533 219.314 86.3318 219.762 84.9676C220.083 83.9595 220.563 80.5943 220.828 78.366C220.988 77.2139 221.108 76.3044 221.18 75.9406C221.349 75.0538 221.084 72.9922 219.674 72.2722C218.585 71.7113 217.086 72.1661 216.558 72.3707L215.556 80.6322Z" fill="#D3CBB7"/>
<path d="M221.565 73.9927C222.85 74.2663 224.099 74.6729 225.29 75.2054C226.14 75.7511 226.46 77.5247 225.875 80.2381C225.29 82.9515 224.457 84.528 223.127 84.6644C221.797 84.8008 220.724 83.2092 220.724 82.2542C220.724 81.2992 221.813 76.1756 221.565 73.9927Z" fill="#F1F1F1"/>
<path d="M222.959 85.051C222.396 85.0354 221.859 84.8219 221.453 84.4522C220.786 83.8872 220.378 83.0989 220.315 82.2542C220.315 81.9131 220.435 81.1703 220.595 80.1396C220.884 78.2751 221.333 75.4631 221.164 74.0761L221.1 73.538L221.661 73.6668C222.995 73.9451 224.291 74.3672 225.523 74.925C226.588 75.6223 226.861 77.6005 226.268 80.3518C225.595 83.4669 224.665 84.8994 223.167 85.0813L222.959 85.051ZM221.998 74.493C221.946 76.4247 221.742 78.3501 221.389 80.2533C221.244 81.1704 221.116 81.9662 221.116 82.2542C221.177 82.8828 221.49 83.4656 221.99 83.8837C222.132 84.0186 222.302 84.124 222.49 84.1931C222.677 84.2623 222.878 84.2937 223.079 84.2854C224.121 84.1793 224.906 82.8302 225.483 80.1623C226.092 77.3276 225.643 75.8876 225.066 75.5162C224.09 75.0617 223.059 74.7182 221.998 74.493Z" fill="#D3CBB7"/>
<path d="M183.541 76.0467C185.344 78.798 184.703 82.2618 182.115 83.7776C179.527 85.2935 175.962 84.293 174.16 81.5038C172.357 78.7146 172.99 75.2888 175.586 73.7729C178.181 72.2571 181.731 73.2878 183.541 76.0467Z" fill="#6B8E23"/>
<path d="M179.463 84.8615C178.32 84.8341 177.202 84.5335 176.215 83.9875C175.227 83.4415 174.402 82.6679 173.815 81.7388C172.903 80.371 172.552 78.7341 172.83 77.1381C172.953 76.3921 173.244 75.6796 173.682 75.0483C174.12 74.417 174.695 73.8814 175.369 73.4773C178.149 71.8553 181.963 72.9164 183.878 75.8421C184.789 77.2105 185.142 78.8459 184.871 80.4427C184.747 81.1894 184.455 81.9023 184.016 82.5336C183.576 83.165 182.999 83.7002 182.324 84.1035C181.464 84.6041 180.473 84.8667 179.463 84.8615ZM178.238 73.4925C177.375 73.4875 176.529 73.7106 175.794 74.1367C175.215 74.4837 174.72 74.9438 174.345 75.4863C173.969 76.0288 173.72 76.6412 173.615 77.2821C173.373 78.6961 173.69 80.1447 174.504 81.3522C176.187 83.9292 179.503 84.8766 181.899 83.4744C182.478 83.1275 182.972 82.6673 183.348 82.1248C183.724 81.5823 183.973 80.97 184.078 80.329C184.321 78.916 184.008 77.4677 183.197 76.2589C182.686 75.4363 181.964 74.7496 181.096 74.2632C180.229 73.7767 179.245 73.5063 178.238 73.4773V73.4925Z" fill="#D3CBB7"/>
<path d="M169.377 85.3238C170.642 87.2565 170.178 89.6819 168.383 90.743C166.589 91.8041 164.073 91.1068 162.775 89.174C161.477 87.2413 161.974 84.816 163.768 83.7473C165.563 82.6786 168.079 83.391 169.377 85.3238Z" fill="#D3CBB7"/>
<path d="M180.962 89.9396C182.227 91.8723 181.763 94.2977 179.968 95.3588C178.173 96.4199 175.658 95.7226 174.36 93.7898C173.062 91.8571 173.559 89.4317 175.353 88.3631C177.148 87.2944 179.704 88.0068 180.962 89.9396Z" fill="#ABABAB"/>
<path d="M178.101 96.238C177.681 96.2352 177.263 96.1765 176.86 96.0637C175.692 95.7121 174.696 94.9773 174.051 93.9918C173.406 93.0064 173.155 91.8353 173.342 90.6899C173.431 90.1517 173.642 89.638 173.96 89.1838C174.278 88.7296 174.695 88.3456 175.184 88.0578C175.673 87.7701 176.222 87.5854 176.793 87.5165C177.364 87.4475 177.944 87.4959 178.494 87.6582C179.669 88.0004 180.67 88.7396 181.306 89.7349C182.684 91.842 182.179 94.5023 180.176 95.6771C179.553 96.043 178.835 96.2373 178.101 96.238ZM177.252 88.2494C176.669 88.2442 176.096 88.3967 175.602 88.689C175.207 88.9217 174.871 89.2326 174.617 89.6004C174.362 89.9682 174.195 90.3839 174.128 90.8188C173.965 91.7859 174.174 92.776 174.716 93.6101C175.258 94.4442 176.098 95.0672 177.084 95.3664C177.525 95.5002 177.991 95.543 178.452 95.492C178.912 95.441 179.355 95.2974 179.752 95.0708C181.354 94.1158 181.771 91.9178 180.625 90.167C180.092 89.3325 179.254 88.7122 178.27 88.4237C177.941 88.3181 177.599 88.2593 177.252 88.2494Z" fill="#D3CBB7"/>
</svg>
